<?xml version="1.0" encoding="utf-8"?>
<svg xmlns="http://www.w3.org/2000/svg" xmlns:xlink="http://www.w3.org/1999/xlink" style="margin: auto; background: none; display: block; shape-rendering: auto;" width="201px" height="201px" viewBox="0 0 100 100" preserveAspectRatio="xMidYMid">
<g transform="rotate(0 50 50)">
  <rect x="46" y="21.5" rx="4" ry="6.5" width="8" height="13" fill="#14005f">
    <animate attributeName="opacity" values="1;0" keyTimes="0;1" dur="0.8928571428571428s" begin="-0.8184523809523808s" repeatCount="indefinite"></animate>
  </rect>
</g><g transform="rotate(30 50 50)">
  <rect x="46" y="21.5" rx="4" ry="6.5" width="8" height="13" fill="#14005f">
    <animate attributeName="opacity" values="1;0" keyTimes="0;1" dur="0.8928571428571428s" begin="-0.744047619047619s" repeatCount="indefinite"></animate>
  </rect>
</g><g transform="rotate(60 50 50)">
  <rect x="46" y="21.5" rx="4" ry="6.5" width="8" height="13" fill="#14005f">
    <animate attributeName="opacity" values="1;0" keyTimes="0;1" dur="0.8928571428571428s" begin="-0.6696428571428571s" repeatCount="indefinite"></animate>
  </rect>
</g><g transform="rotate(90 50 50)">
  <rect x="46" y="21.5" rx="4" ry="6.5" width="8" height="13" fill="#14005f">
    <animate attributeName="opacity" values="1;0" keyTimes="0;1" dur="0.8928571428571428s" begin="-0.5952380952380952s" repeatCount="indefinite"></animate>
  </rect>
</g><g transform="rotate(120 50 50)">
  <rect x="46" y="21.5" rx="4" ry="6.5" width="8" height="13" fill="#14005f">
    <animate attributeName="opacity" values="1;0" keyTimes="0;1" dur="0.8928571428571428s" begin="-0.5208333333333333s" repeatCount="indefinite"></animate>
  </rect>
</g><g transform="rotate(150 50 50)">
  <rect x="46" y="21.5" rx="4" ry="6.5" width="8" height="13" fill="#14005f">
    <animate attributeName="opacity" values="1;0" keyTimes="0;1" dur="0.8928571428571428s" begin="-0.4464285714285714s" repeatCount="indefinite"></animate>
  </rect>
</g><g transform="rotate(180 50 50)">
  <rect x="46" y="21.5" rx="4" ry="6.5" width="8" height="13" fill="#14005f">
    <animate attributeName="opacity" values="1;0" keyTimes="0;1" dur="0.8928571428571428s" begin="-0.3720238095238095s" repeatCount="indefinite"></animate>
  </rect>
</g><g transform="rotate(210 50 50)">
  <rect x="46" y="21.5" rx="4" ry="6.5" width="8" height="13" fill="#14005f">
    <animate attributeName="opacity" values="1;0" keyTimes="0;1" dur="0.8928571428571428s" begin="-0.2976190476190476s" repeatCount="indefinite"></animate>
  </rect>
</g><g transform="rotate(240 50 50)">
  <rect x="46" y="21.5" rx="4" ry="6.5" width="8" height="13" fill="#14005f">
    <animate attributeName="opacity" values="1;0" keyTimes="0;1" dur="0.8928571428571428s" begin="-0.2232142857142857s" repeatCount="indefinite"></animate>
  </rect>
</g><g transform="rotate(270 50 50)">
  <rect x="46" y="21.5" rx="4" ry="6.5" width="8" height="13" fill="#14005f">
    <animate attributeName="opacity" values="1;0" keyTimes="0;1" dur="0.8928571428571428s" begin="-0.1488095238095238s" repeatCount="indefinite"></animate>
  </rect>
</g><g transform="rotate(300 50 50)">
  <rect x="46" y="21.5" rx="4" ry="6.5" width="8" height="13" fill="#14005f">
    <animate attributeName="opacity" values="1;0" keyTimes="0;1" dur="0.8928571428571428s" begin="-0.0744047619047619s" repeatCount="indefinite"></animate>
  </rect>
</g><g transform="rotate(330 50 50)">
  <rect x="46" y="21.5" rx="4" ry="6.5" width="8" height="13" fill="#14005f">
    <animate attributeName="opacity" values="1;0" keyTimes="0;1" dur="0.8928571428571428s" begin="0s" repeatCount="indefinite"></animate>
  </rect>
</g>
<!-- [ldio] generated by https://loading.io/ --></svg>