<svg width="19" height="18" viewBox="0 0 19 18" fill="none" xmlns="http://www.w3.org/2000/svg">
<path d="M0.624596 8.82981C0.217724 8.89249 0.0663294 8.67757 0.283959 8.34623L4.9488 1.21787C5.16643 0.886525 5.51653 0.886525 5.73416 1.21787L10.399 8.34623C10.6166 8.67757 10.4652 8.89249 10.0584 8.82981L6.08426 8.20294C5.67739 8.14026 5.01504 8.14026 4.60816 8.20294L0.624596 8.82981Z" fill="#41A2FC"/>
<path d="M7.32362 15.6357C7.32362 15.8238 7.16277 15.985 6.9546 15.985H3.89832C3.69962 15.985 3.5293 15.8328 3.5293 15.6357V4.5044C3.5293 4.31635 3.69015 4.15515 3.89832 4.15515H6.9546C7.1533 4.15515 7.32362 4.30739 7.32362 4.5044V15.6357Z" fill="#41A2FC"/>
<path d="M8.84725 9.28662C8.44038 9.22393 8.28899 9.43886 8.50662 9.7702L13.1715 16.8986C13.3891 17.2299 13.7392 17.2299 13.9568 16.8986L18.6217 9.7702C18.8393 9.43886 18.6879 9.22393 18.281 9.28662L14.3069 9.91348C13.9 9.97617 13.2377 9.97617 12.8308 9.91348L8.84725 9.28662Z" fill="#41A2FC"/>
<path d="M15.4612 2.89259C15.4612 2.70453 15.3004 2.54333 15.0922 2.54333H11.9413C11.7426 2.54333 11.5723 2.69557 11.5723 2.89259V13.9344C11.5723 14.1224 11.7331 14.2836 11.9413 14.2836H15.0922C15.2909 14.2836 15.4612 14.1314 15.4612 13.9344V2.89259Z" fill="#41A2FC"/>
</svg>
