<svg width="514" height="514" viewBox="0 0 514 514" fill="none" xmlns="http://www.w3.org/2000/svg">
<circle cx="257" cy="257" r="257" fill="#E2E7ED"/>
<path fill-rule="evenodd" clip-rule="evenodd" d="M198.887 254.864C198.887 254.864 200.47 270.895 204.678 279.639C209.647 289.956 221.086 303.458 221.086 303.458V343.474C221.086 343.474 214.94 355.209 204.678 362.528C200.816 365.283 191.995 369.414 181.481 373.965C158.813 383.778 128.282 395.545 122.641 399.686C114.382 405.748 108 409 89.4999 432.5C83.1743 441.92 81.5 445 81.5 445C79.5 443 117.354 480.103 170.5 499.5C212 516 280.5 517.5 309.88 508.296C343 500.5 371.5 491.197 402.5 468.5C427 450.562 429 449 445.5 431.5C445.5 431.5 439.852 415.887 419.906 402.54C399.959 389.193 345.745 371.547 339.798 367.288C333.852 363.03 321.984 354.43 318.565 345.375C315.099 336.194 316.635 302.501 316.635 302.501C316.635 302.501 325.209 292.941 329.182 286.305C333.154 279.669 338.834 254.864 338.834 254.864C341.46 254.207 343.925 253.024 346.082 251.387C348.238 249.749 350.041 247.691 351.38 245.336C354.976 238.898 357.25 226.363 356.206 218.659C355.875 216.162 354.9 213.794 353.377 211.789C351.854 209.785 349.835 208.212 347.52 207.226C347.52 207.226 355.034 186.284 357.171 165.305C362.865 109.419 337.843 87.3036 313.74 87.1793C313.74 87.1793 311.975 78.2475 297.332 72.8883C282.689 67.529 236.472 65.5519 214.33 81.4625C192.189 97.3731 182.995 120.161 181.515 148.155C180.035 176.149 188.27 207.227 188.27 207.227C188.27 207.227 184.254 208.035 182.479 215.802C180.482 224.528 183.005 235.128 183.005 235.128C184.655 241.129 185.248 243.109 188.827 247.758C192.407 252.407 198.887 254.864 198.887 254.864Z" fill="#BFC3C8"/>
</svg>
